<svg xmlns="http://www.w3.org/2000/svg" width="800" height="800" viewBox="0 0 800 800">
<g>
<path d="M 275.40 139.96 C270.86,143.94 267.87,143.79 260.58,139.22 L 254.67 135.50 L 243.84 135.78 C234.32,136.03 232.10,135.75 225.41,133.44 C217.27,130.63 213.34,130.56 204.66,133.07 C200.14,134.37 199.72,134.34 198.41,132.54 C197.63,131.48 197.00,128.79 197.01,126.56 C197.02,113.97 206.14,104.00 217.64,104.00 C222.13,104.00 222.66,104.31 228.49,110.38 C231.86,113.88 236.15,117.54 238.01,118.51 C242.89,121.03 252.11,121.44 262.50,119.60 C273.81,117.60 277.97,117.59 280.78,119.56 C285.32,122.74 282.40,133.81 275.40,139.96 ZM 580.40 676.75 C585.29,681.84 589.12,685.96 588.90,685.92 C587.69,685.67 578.08,677.59 575.66,674.79 C571.51,669.97 564.80,660.00 565.71,660.01 C566.15,660.01 567.62,661.70 569.00,663.76 C570.38,665.82 575.50,671.66 580.40,676.75 ZM 591.00 655.23 C591.00,655.65 590.82,656.00 590.61,656.00 C589.66,656.00 579.80,646.52 577.78,643.66 C576.36,641.66 578.39,643.07 583.27,647.48 C587.52,651.32 591.00,654.80 591.00,655.23 ZM 604.50 666.00 C605.40,667.45 604.96,667.24 600.23,663.89 C597.89,662.23 596.23,660.44 596.55,659.92 C597.17,658.92 597.50,659.06 602.89,662.71 C604.75,663.97 605.74,665.00 605.08,665.00 C604.42,665.00 604.16,665.45 604.50,666.00 ZM 285.00 463.06 C285.00,465.88 284.65,465.53 282.17,460.25 L 279.95 455.50 L 282.47 458.31 C283.86,459.85 285.00,461.99 285.00,463.06 ZM 640.00 680.62 C640.00,681.38 639.20,682.00 638.21,682.00 C637.14,682.00 636.43,681.26 636.43,680.15 C636.43,678.87 636.98,678.44 638.21,678.77 C639.20,679.02 640.00,679.86 640.00,680.62 Z" fill="rgb(0,111,187)"/>
<path d="M 222.37 411.75 C224.33,416.29 225.76,420.00 225.55,420.00 C224.75,420.00 215.53,409.18 209.83,401.56 C187.55,371.75 174.04,338.12 167.92,297.18 C163.78,269.57 165.15,253.42 173.05,236.50 C175.11,232.10 177.54,226.70 178.45,224.50 C182.46,214.87 184.22,187.94 181.93,171.47 C181.35,167.25 181.09,163.58 181.36,163.31 C181.63,163.04 184.92,164.63 188.67,166.84 C197.84,172.22 202.00,172.71 202.00,168.39 C202.00,166.29 202.34,165.93 203.75,166.54 C204.71,166.95 207.52,167.93 210.00,168.73 C220.55,172.10 223.07,173.31 227.27,177.01 C231.27,180.52 237.68,190.88 239.41,196.61 C240.01,198.60 239.61,198.74 231.77,199.28 C221.98,199.94 214.05,202.53 206.51,207.54 C190.50,218.17 184.44,230.46 183.29,254.65 C182.16,278.64 187.10,306.73 199.98,349.42 C207.75,375.20 213.37,390.84 222.37,411.75 ZM 591.00 655.23 C591.00,654.80 587.52,651.32 583.27,647.48 C578.39,643.07 576.36,641.66 577.78,643.66 C578.61,644.84 580.78,647.15 583.10,649.45 C578.56,645.35 574.36,641.00 575.35,641.00 C575.78,641.00 575.21,639.69 574.07,638.10 C571.72,634.80 571.56,632.74 573.32,628.62 L 574.55 625.73 L 585.03 625.90 C602.51,626.17 626.69,627.92 642.00,630.03 C660.57,632.57 662.56,633.13 662.29,635.72 C661.79,640.37 657.60,649.24 652.72,655.97 C643.84,668.24 642.06,671.32 640.77,676.75 C640.45,678.11 640.14,679.17 639.82,679.96 C639.53,679.43 638.92,678.95 638.21,678.77 C637.29,678.52 636.75,678.70 636.53,679.34 C636.26,678.86 635.68,678.43 634.85,678.09 C633.56,677.56 627.81,675.08 622.08,672.57 C616.34,670.06 611.25,668.00 610.76,668.00 C610.26,668.00 609.18,667.33 608.36,666.50 C606.59,664.73 603.54,664.45 604.60,666.15 C604.61,666.17 604.61,666.19 604.62,666.20 C604.58,666.14 604.54,666.07 604.50,666.00 C604.16,665.45 604.42,665.00 605.08,665.00 C605.74,665.00 604.75,663.97 602.89,662.71 C597.50,659.06 597.17,658.92 596.55,659.92 C596.33,660.28 597.05,661.24 598.29,662.35 C596.92,661.25 596.00,660.32 596.00,659.98 C596.00,659.48 593.72,657.59 590.90,655.74 C590.96,655.61 591.00,655.43 591.00,655.23 ZM 623.00 668.16 C629.17,670.21 634.32,669.92 637.13,667.38 C639.47,665.26 641.29,659.44 640.84,655.48 C640.42,651.75 635.83,649.28 627.38,648.22 L 621.50 647.49 L 621.50 643.16 C621.50,637.62 619.26,635.71 610.82,634.04 C604.39,632.76 578.12,630.97 576.75,631.71 C573.59,633.42 582.36,643.43 591.50,648.55 C594.25,650.10 598.79,653.48 601.58,656.08 C607.09,661.19 614.34,665.28 623.00,668.16 ZM 580.40 676.75 C575.50,671.66 570.38,665.82 569.00,663.76 C567.62,661.70 566.15,660.01 565.71,660.01 C565.09,660.00 568.03,664.67 571.28,669.16 C566.33,663.28 562.43,657.91 564.77,659.36 C565.36,659.72 564.89,658.27 563.72,656.13 C561.60,652.27 561.60,652.22 563.48,648.04 L 565.38 643.83 L 569.94 644.51 C572.45,644.89 575.18,645.56 576.01,646.01 C578.30,647.23 581.40,650.93 580.71,651.62 C580.38,651.96 577.28,651.74 573.84,651.13 C570.05,650.46 567.21,650.39 566.66,650.94 C564.71,652.89 567.40,657.60 574.17,664.05 C582.64,672.12 583.12,672.60 591.73,681.53 C602.37,692.57 615.66,698.42 621.47,694.61 C624.37,692.71 628.38,685.44 627.62,683.46 C627.25,682.49 628.41,682.68 631.78,684.12 C634.35,685.22 636.65,686.32 636.89,686.55 C637.12,686.79 634.97,689.45 632.12,692.47 C629.26,695.49 625.82,700.33 624.47,703.23 C623.12,706.13 622.02,708.03 622.01,707.45 C622.00,706.87 619.86,705.36 617.25,704.10 C612.26,701.69 599.79,693.55 588.62,685.53 C587.65,684.39 584.38,680.89 580.40,676.75 ZM 636.53 680.84 C636.75,681.49 637.27,681.91 637.99,681.99 C637.92,682.00 637.86,682.00 637.79,682.00 C636.81,682.00 636.37,681.59 636.53,680.84 Z" fill="rgb(35,152,98)"/>
<path d="M 467.81 576.96 C465.96,578.69 464.39,578.98 457.56,578.89 C447.15,578.74 429.08,575.96 416.90,572.64 C385.96,564.19 362.02,549.17 342.77,526.12 C327.99,508.42 317.28,490.20 311.75,473.35 C309.84,467.52 309.50,464.33 309.50,452.00 L 309.50 437.50 L 313.37 429.59 C318.64,418.78 327.64,409.93 339.64,403.75 C350.08,398.37 363.68,394.19 373.57,393.34 C380.43,392.75 380.71,392.82 382.82,395.50 C384.65,397.83 385.00,399.57 385.01,406.38 C385.04,437.95 396.40,476.92 413.74,505.00 C425.22,523.58 441.00,542.46 455.52,555.01 C460.93,559.68 466.40,564.49 467.68,565.70 C470.76,568.63 470.83,574.15 467.81,576.96 ZM 216.45 202.42 C221.13,200.68 226.14,199.66 231.77,199.28 C239.61,198.74 240.01,198.60 239.41,196.61 C237.68,190.88 231.27,180.52 227.27,177.01 C223.07,173.31 220.55,172.10 210.00,168.73 C207.52,167.93 204.71,166.95 203.75,166.54 C202.34,165.93 202.00,166.29 202.00,168.39 C202.00,168.90 201.94,169.34 201.82,169.72 C202.23,167.96 201.77,165.05 200.53,164.03 C199.73,163.36 197.43,159.37 195.44,155.15 C192.97,149.93 189.78,145.39 185.41,140.85 C179.31,134.52 179.00,133.96 179.02,129.35 C179.05,122.61 181.82,117.18 188.79,110.21 C201.07,97.93 215.38,89.76 230.37,86.47 C239.59,84.45 253.90,84.86 263.50,87.42 C276.89,90.99 295.86,102.80 302.72,111.83 C306.76,117.16 306.88,118.45 303.25,117.54 C296.56,115.87 287.02,115.76 284.61,117.33 C282.75,118.56 282.36,119.30 282.63,122.29 C282.29,121.13 281.68,120.19 280.78,119.56 C277.97,117.59 273.81,117.60 262.50,119.60 C252.11,121.44 242.89,121.03 238.01,118.51 C236.15,117.54 231.86,113.88 228.49,110.38 C222.66,104.31 222.13,104.00 217.64,104.00 C206.14,104.00 197.02,113.97 197.01,126.56 C197.00,128.79 197.63,131.48 198.41,132.54 C199.72,134.34 200.14,134.37 204.66,133.07 C213.34,130.56 217.27,130.63 225.41,133.44 C232.10,135.75 234.32,136.03 243.84,135.78 L 254.67 135.50 L 260.58 139.22 C264.55,141.71 267.25,142.89 269.61,142.80 C269.36,142.85 269.11,142.90 268.86,142.93 C260.18,144.12 261.71,148.51 273.50,156.20 C276.80,158.35 279.81,160.88 280.18,161.81 C280.55,162.74 280.89,166.92 280.93,171.09 C280.99,177.65 280.58,179.52 277.92,184.84 C272.17,196.36 261.72,201.92 248.62,200.45 C234.52,198.87 224.88,199.35 216.45,202.42 ZM 640.00 680.62 C640.00,680.40 639.93,680.18 639.82,679.96 C640.14,679.17 640.45,678.11 640.77,676.75 C642.06,671.32 643.84,668.24 652.72,655.97 C657.60,649.24 661.79,640.37 662.29,635.72 C662.42,634.45 662.01,633.67 659.39,632.91 C659.75,632.99 660.11,633.06 660.46,633.14 C673.97,636.09 678.59,639.60 681.98,649.45 C684.60,657.05 684.53,661.10 681.62,669.63 C678.33,679.33 676.53,682.49 672.49,685.71 C669.68,687.96 669.00,689.19 669.00,692.05 C669.00,696.78 661.94,711.26 657.77,715.07 C655.97,716.72 652.28,718.72 649.57,719.53 C647.10,720.27 645.79,720.68 644.45,720.78 C642.79,720.91 641.09,720.54 637.10,719.67 C636.85,719.61 636.58,719.55 636.31,719.49 C624.21,716.87 604.36,705.79 590.21,693.77 C579.22,684.44 564.00,665.23 564.00,660.70 C564.00,660.28 564.07,659.93 564.20,659.70 C564.83,661.13 567.80,665.02 571.28,669.16 C572.79,671.23 574.35,673.27 575.66,674.79 C576.82,676.13 579.64,678.69 582.38,681.02 L 580.50 679.66 L 583.50 682.91 C588.97,688.83 599.81,697.10 610.62,703.59 C616.48,707.12 621.45,710.00 621.64,710.00 C621.84,710.00 622.00,709.19 622.00,708.20 C622.00,707.04 620.31,705.58 617.25,704.10 C619.86,705.36 622.00,706.87 622.01,707.45 C622.02,708.03 623.12,706.13 624.47,703.23 C625.82,700.33 629.26,695.49 632.12,692.47 C634.97,689.45 637.12,686.79 636.89,686.55 C636.65,686.32 634.35,685.22 631.78,684.12 C628.41,682.68 627.25,682.49 627.62,683.46 C627.64,683.51 627.66,683.56 627.67,683.61 C626.59,682.64 622.99,680.51 618.75,678.39 C606.76,672.39 597.11,665.92 589.38,658.72 C583.57,653.30 582.69,652.84 575.41,651.45 C572.35,650.87 569.93,650.57 568.41,650.57 C569.71,650.55 571.61,650.74 573.84,651.13 C577.28,651.74 580.38,651.96 580.71,651.62 C581.40,650.93 578.30,647.23 576.01,646.01 C575.18,645.56 572.45,644.89 569.94,644.51 L 567.50 644.15 C568.59,644.12 570.04,644.40 572.12,644.89 C575.66,645.71 575.74,645.66 575.53,642.92 C575.40,641.38 574.56,638.98 573.65,637.59 C572.08,635.19 571.73,633.37 572.56,630.66 C571.69,633.52 572.14,635.39 574.07,638.10 C575.21,639.69 575.78,641.00 575.35,641.00 C574.36,641.00 578.56,645.35 583.10,649.45 C586.41,652.73 590.05,656.00 590.61,656.00 C590.72,656.00 590.83,655.90 590.90,655.74 C593.72,657.59 596.00,659.48 596.00,659.98 C596.00,660.32 596.92,661.25 598.29,662.35 C598.85,662.85 599.51,663.38 600.23,663.89 C604.73,667.07 605.35,667.43 604.62,666.20 C604.61,666.19 604.61,666.17 604.60,666.15 C604.56,666.10 604.53,666.05 604.51,666.00 C605.72,667.52 615.45,672.79 624.85,677.01 C629.61,679.14 634.29,680.91 635.25,680.94 C635.81,680.96 636.22,680.88 636.50,680.73 C636.51,680.77 636.52,680.80 636.53,680.84 C636.37,681.59 636.81,682.00 637.79,682.00 C637.86,682.00 637.92,682.00 637.99,681.99 C638.06,682.00 638.14,682.00 638.21,682.00 C639.20,682.00 640.00,681.38 640.00,680.62 ZM 635.06 629.16 C620.02,627.46 600.05,626.13 585.03,625.90 C601.53,626.16 619.54,627.37 635.06,629.16 ZM 275.94 139.47 C279.04,136.54 281.27,132.65 282.31,129.03 C281.31,133.02 278.95,136.83 275.94,139.47 ZM 572.80 662.71 C573.19,663.10 573.61,663.50 574.04,663.91 C577.84,667.54 581.89,671.40 583.03,672.50 C583.61,673.05 584.74,674.24 586.09,675.70 C582.24,671.75 580.29,669.88 574.17,664.05 C573.69,663.59 573.23,663.15 572.80,662.71 ZM 600.59 693.84 C596.57,691.18 592.68,688.52 589.93,686.50 C589.56,686.23 589.12,685.91 588.64,685.56 L 588.62 685.53 C592.57,688.37 596.69,691.23 600.59,693.84 ZM 200.50 171.14 C199.58,171.45 198.24,171.30 196.45,170.68 C197.90,171.13 199.14,171.24 200.50,171.14 ZM 605.32 665.02 C606.17,665.06 607.44,665.58 608.36,666.50 C607.51,665.66 606.22,665.12 605.32,665.02 ZM 641.63 629.97 C643.01,630.16 644.37,630.35 645.70,630.54 C644.54,630.38 643.31,630.21 642.00,630.03 C641.88,630.01 641.76,629.99 641.63,629.97 ZM 624.01 692.02 C624.45,691.42 624.90,690.76 625.32,690.09 C624.91,690.76 624.47,691.42 624.01,692.02 Z" fill="rgb(41,43,40)"/>
<path d="M 229.41 199.76 C234.88,199.35 241.12,199.61 248.62,200.45 C257.28,201.42 264.79,199.32 270.54,194.45 C267.69,197.15 267.36,197.81 269.11,197.15 C276.46,194.35 305.06,189.69 343.50,185.01 C357.25,183.33 374.12,181.07 381.00,179.98 C438.02,170.91 476.89,154.02 504.47,126.34 C524.33,106.41 538.35,81.21 545.90,51.89 C547.45,45.87 548.93,40.74 549.19,40.47 C549.46,40.21 550.88,45.06 552.35,51.25 C569.20,122.03 561.22,172.03 527.79,205.15 C508.50,224.26 480.39,237.35 439.00,246.50 C426.73,249.21 415.53,251.24 378.00,257.54 C305.14,269.79 275.80,281.22 252.12,306.58 C235.75,324.10 228.27,343.83 227.11,372.48 L 226.50 387.46 L 219.86 371.98 C208.13,344.63 202.45,326.72 198.89,305.91 C196.13,289.76 196.61,267.68 199.97,256.03 C204.77,239.41 216.34,223.28 230.24,213.84 C236.40,209.65 251.39,202.08 253.95,201.87 C258.48,201.49 240.17,199.61 232.50,199.67 C231.44,199.68 230.41,199.71 229.41,199.76 ZM 287.43 435.00 C286.49,438.58 285.45,446.85 285.11,453.39 L 284.68 461.76 C284.25,460.68 283.42,459.36 282.47,458.31 L 279.95 455.50 L 282.17 460.25 C283.43,462.92 284.13,464.33 284.53,464.71 L 284.50 465.28 L 277.84 452.39 C262.98,423.61 255.02,398.14 253.36,374.08 C252.01,354.40 259.21,333.36 270.89,322.88 C278.36,316.17 292.30,309.49 314.50,301.99 C351.10,289.63 369.19,285.34 409.41,279.49 C444.25,274.42 456.85,271.29 473.70,263.50 C502.59,250.16 531.54,224.07 552.77,192.27 C554.69,189.39 556.61,187.26 557.04,187.53 C558.23,188.26 562.80,208.26 564.48,220.06 C568.96,251.60 563.21,279.91 548.19,300.25 C537.52,314.69 518.36,328.39 494.54,338.62 C469.01,349.58 421.86,364.32 369.00,377.87 C326.89,388.67 317.02,392.88 304.39,405.44 C295.53,414.25 290.66,422.73 287.43,435.00 ZM 544.95 637.44 C554.43,642.15 562.79,646.00 563.52,646.00 C563.88,646.00 564.25,645.87 564.56,645.66 L 563.48 648.04 C561.60,652.22 561.60,652.27 563.72,656.13 C564.89,658.27 565.36,659.72 564.77,659.36 C564.08,658.93 563.93,659.10 564.20,659.70 C564.07,659.93 564.00,660.28 564.00,660.70 C564.00,662.76 567.16,667.87 571.63,673.70 C567.16,667.90 564.00,662.83 564.00,660.83 C564.00,659.65 558.34,656.21 545.25,649.44 C534.94,644.11 522.45,637.47 517.50,634.69 C504.63,627.46 436.07,582.52 429.50,577.00 C428.55,576.20 424.69,574.75 420.45,573.55 C432.39,576.46 448.13,578.76 457.56,578.89 C459.30,578.91 460.70,578.91 461.85,578.87 C460.32,579.05 458.58,579.18 456.87,579.24 L 449.25 579.50 L 473.37 595.64 C500.14,613.55 519.13,624.64 544.95,637.44 ZM 467.81 576.96 C470.83,574.15 470.76,568.63 467.68,565.70 C466.40,564.49 460.93,559.68 455.52,555.01 C453.19,553.00 450.83,550.82 448.46,548.51 C457.48,557.08 467.67,564.94 480.77,573.74 C502.11,588.07 505.25,589.94 534.00,605.27 C563.75,621.14 570.28,624.71 577.16,625.58 C578.20,625.71 579.24,625.78 580.38,625.83 L 574.55 625.73 L 573.32 628.62 C573.01,629.36 572.75,630.03 572.56,630.66 C572.55,630.69 572.54,630.71 572.53,630.74 C571.74,633.41 572.09,635.21 573.65,637.59 C574.56,638.98 575.40,641.38 575.53,642.92 C575.56,643.40 575.59,643.80 575.59,644.12 C575.56,643.97 575.51,643.80 575.46,643.61 C573.92,638.05 572.32,636.81 555.08,627.85 C526.15,612.80 494.40,594.40 478.11,583.24 C470.03,577.70 468.44,576.96 466.61,577.89 C466.57,577.92 466.52,577.94 466.47,577.96 C466.95,577.70 467.37,577.37 467.81,576.96 ZM 600.59 693.84 C607.68,698.60 614.03,702.54 617.25,704.10 C620.31,705.58 622.00,707.04 622.00,708.20 C622.00,709.19 621.84,710.00 621.64,710.00 C621.45,710.00 616.48,707.12 610.62,703.59 C599.81,697.10 588.97,688.83 583.50,682.91 L 580.50 679.66 L 582.38 681.02 C585.36,683.54 588.27,685.79 588.90,685.92 C588.94,685.93 588.84,685.80 588.64,685.56 C589.12,685.91 589.56,686.23 589.93,686.50 C592.68,688.52 596.56,691.18 600.58,693.84 ZM 622.08 672.57 C627.81,675.08 633.56,677.56 634.85,678.09 C635.68,678.43 636.26,678.86 636.53,679.34 C636.46,679.56 636.43,679.83 636.43,680.15 C636.43,680.36 636.45,680.55 636.50,680.73 C636.22,680.88 635.81,680.96 635.25,680.94 C634.29,680.91 629.61,679.14 624.85,677.01 C615.45,672.79 605.72,667.52 604.51,666.00 C604.15,665.29 604.58,664.98 605.32,665.02 C606.22,665.12 607.51,665.66 608.36,666.50 C609.18,667.33 610.26,668.00 610.76,668.00 C611.25,668.00 616.34,670.06 622.08,672.57 ZM 421.10 516.13 C418.50,512.44 416.04,508.71 413.74,505.00 C407.45,494.81 401.94,483.18 397.48,470.99 C403.45,486.84 411.42,502.18 421.10,516.13 ZM 273.97 190.97 C275.46,189.16 276.79,187.12 277.92,184.84 C278.40,183.89 278.80,183.05 279.14,182.27 C278.00,185.41 276.29,188.28 273.97,190.97 ZM 413.48 571.67 C403.69,568.85 394.48,565.22 385.86,560.77 C394.39,565.14 403.57,568.76 413.48,571.67 ZM 601.74 626.45 C613.46,627.03 625.32,628.01 635.98,629.27 C635.67,629.23 635.36,629.20 635.05,629.16 C624.66,627.96 613.16,627.02 601.74,626.45 ZM 573.33 645.16 C574.10,645.29 574.64,645.35 575.01,645.32 C574.66,645.40 574.13,645.33 573.33,645.16 ZM 641.63 629.97 C641.49,629.96 641.35,629.94 641.22,629.92 C642.74,630.12 644.24,630.33 645.70,630.54 C644.37,630.35 643.02,630.16 641.64,629.98 Z" fill="rgb(79,197,223)"/>
<path d="M 551.05 614.34 C546.40,611.88 540.81,608.90 534.00,605.27 C505.25,589.94 502.11,588.07 480.77,573.74 C467.67,564.94 457.48,557.08 448.46,548.51 C443.74,543.91 438.98,538.77 434.37,533.31 C437.32,536.41 439.94,537.80 447.36,541.44 C453.49,544.44 463.00,548.13 468.50,549.63 C477.54,552.09 480.18,552.36 496.00,552.42 C511.34,552.48 514.61,552.20 522.50,550.12 C570.47,537.51 608.53,494.41 622.08,437.38 C628.92,408.61 628.69,374.79 621.47,345.50 C613.31,312.43 594.14,279.75 572.20,261.49 L 565.50 255.92 L 564.65 260.21 C562.76,269.70 560.37,277.71 557.13,284.88 C565.33,266.61 567.92,244.29 564.48,220.06 C562.80,208.26 558.23,188.26 557.04,187.53 C556.61,187.26 554.69,189.39 552.77,192.27 C551.75,193.79 550.72,195.30 549.67,196.79 C550.66,195.37 551.63,193.94 552.59,192.50 C555.72,187.77 555.85,187.25 554.88,182.81 C554.32,180.23 554.01,176.75 554.18,175.08 L 554.50 172.04 L 562.02 175.32 C579.70,183.02 598.01,195.96 614.59,212.46 C635.07,232.86 649.66,254.18 661.87,281.55 C699.66,366.32 690.39,471.34 638.65,544.50 C617.76,574.03 587.50,599.30 558.80,611.14 ZM 200.50 171.14 C199.14,171.24 197.90,171.13 196.45,170.68 C194.44,169.99 191.86,168.71 188.67,166.84 C184.92,164.63 181.63,163.04 181.36,163.31 C181.16,163.50 181.24,165.43 181.51,168.05 L 180.77 162.23 L 172.63 157.71 C149.99,145.14 134.29,139.69 105.59,134.44 C91.84,131.93 89.87,131.05 91.59,128.22 C96.22,120.60 144.10,112.56 172.00,114.73 L 182.50 115.54 L 189.00 109.64 C191.40,107.46 193.76,105.45 196.08,103.60 C193.58,105.65 191.15,107.85 188.79,110.21 C181.82,117.18 179.05,122.61 179.02,129.35 C179.00,133.96 179.31,134.52 185.41,140.85 C189.78,145.39 192.97,149.93 195.44,155.15 C197.43,159.37 199.73,163.36 200.53,164.03 C201.77,165.05 202.23,167.96 201.82,169.72 C201.60,170.44 201.16,170.91 200.50,171.14 ZM 601.52 656.02 C598.72,653.43 594.23,650.09 591.50,648.55 C582.36,643.43 573.59,633.42 576.75,631.71 C578.12,630.97 604.39,632.76 610.82,634.04 C619.26,635.71 621.50,637.62 621.50,643.16 L 621.50 647.49 L 623.23 647.71 C620.80,647.55 620.47,648.12 619.43,650.13 C618.63,651.68 617.11,653.40 616.06,653.97 C613.27,655.46 606.91,655.23 601.88,653.46 L 597.51 651.92 L 601.40 655.89 C601.44,655.94 601.48,655.98 601.52,656.02 ZM 572.80 662.71 C569.90,659.81 567.91,657.30 566.87,655.30 C566.82,655.20 566.77,655.10 566.72,655.00 C565.84,653.17 565.81,651.79 566.66,650.94 L 566.67 650.93 C566.90,650.71 567.51,650.59 568.41,650.57 C569.93,650.57 572.35,650.87 575.41,651.45 C582.69,652.84 583.57,653.30 589.38,658.72 C596.68,665.52 605.71,671.67 616.79,677.39 L 608.11 673.04 L 605.01 676.14 C602.24,678.91 601.48,679.17 597.86,678.59 C595.64,678.24 592.01,677.03 589.81,675.90 C587.61,674.78 585.60,674.07 585.35,674.32 C585.25,674.42 585.58,674.98 586.22,675.84 L 586.09 675.70 C584.74,674.24 583.61,673.05 583.03,672.50 C581.89,671.40 577.84,667.54 574.04,663.91 C573.61,663.50 573.19,663.10 572.80,662.71 ZM 421.10 516.13 L 421.10 516.12 C411.42,502.18 403.45,486.84 397.48,470.99 C397.24,470.34 397.00,469.68 396.77,469.03 C403.54,487.37 413.09,505.23 425.07,521.60 C423.72,519.79 422.39,517.96 421.10,516.13 ZM 437.20 358.77 C416.15,365.39 397.58,370.54 369.00,377.87 C393.49,371.59 416.75,365.06 437.20,358.77 ZM 535.19 314.03 C528.08,320.48 519.40,326.34 508.39,332.01 C518.67,326.57 527.74,320.48 535.19,314.03 ZM 181.25 212.95 C180.52,217.75 179.57,221.80 178.45,224.50 C178.05,225.48 177.34,227.10 176.50,228.98 C179.40,222.37 180.25,219.23 181.25,212.95 ZM 522.02 229.27 C506.88,243.98 490.29,255.83 473.72,263.49 C490.21,255.87 506.89,243.94 522.02,229.27 ZM 287.43 435.00 C287.79,433.63 288.18,432.31 288.58,431.03 C287.52,434.56 286.71,438.35 286.12,442.48 C286.53,439.39 286.99,436.68 287.43,435.00 ZM 182.10 172.76 C182.72,177.82 182.99,183.75 182.94,189.81 C182.95,183.87 182.67,177.94 182.10,172.76 ZM 209.47 94.46 C216.25,90.65 223.05,88.08 230.37,86.47 C223.20,88.04 216.18,90.73 209.47,94.46 ZM 618.74 666.60 C614.39,664.86 610.45,662.77 606.98,660.38 C610.40,662.68 614.55,664.88 618.74,666.60 ZM 637.61 651.13 C635.64,649.97 632.77,649.08 628.96,648.45 C632.72,649.03 635.61,649.93 637.61,651.13 ZM 565.56 621.71 C563.76,620.87 561.71,619.86 559.32,618.64 L 562.29 620.10 ZM 620.10 679.07 C623.74,680.96 626.71,682.74 627.67,683.61 L 627.67 683.62 C626.72,682.77 623.77,681.00 620.10,679.07 ZM 297.31 413.56 C299.34,410.81 301.68,408.14 304.39,405.44 C301.71,408.10 299.36,410.79 297.31,413.56 Z" fill="rgb(254,128,57)"/>
<path d="M 0.00 0.00 L 800.00 0.00 L 800.00 800.00 L 0.00 800.00 ZM 285.00 463.06 C285.00,462.71 284.88,462.26 284.68,461.76 L 285.11 453.39 C285.29,449.92 285.67,445.96 286.12,442.48 C286.71,438.35 287.52,434.56 288.58,431.03 C290.69,424.35 293.44,418.80 297.31,413.56 L 297.31 413.56 C299.15,411.07 301.23,408.66 303.57,406.26 C303.84,405.99 304.12,405.71 304.39,405.44 C317.02,392.88 326.89,388.67 369.00,377.87 C393.49,371.59 416.75,365.06 437.20,358.77 C460.90,351.47 480.84,344.50 494.54,338.62 C499.36,336.55 503.99,334.34 508.39,332.01 C519.40,326.34 528.08,320.48 535.19,314.03 L 535.19 314.03 C540.34,309.57 544.71,304.95 548.19,300.25 C551.67,295.53 554.65,290.39 557.13,284.88 L 557.13 284.87 C560.37,277.70 562.76,269.69 564.65,260.21 L 565.50 255.92 L 572.20 261.49 C594.14,279.75 613.31,312.43 621.47,345.50 C628.69,374.79 628.92,408.61 622.08,437.38 C608.53,494.41 570.47,537.51 522.50,550.12 C514.61,552.20 511.34,552.48 496.00,552.42 C480.18,552.36 477.54,552.09 468.50,549.63 C463.00,548.13 453.49,544.44 447.36,541.44 C439.94,537.80 437.32,536.41 434.37,533.31 C431.18,529.54 428.06,525.61 425.07,521.60 C413.09,505.23 403.54,487.37 396.77,469.03 C389.37,448.19 385.03,425.88 385.01,406.38 C385.00,399.57 384.65,397.83 382.82,395.50 C380.71,392.82 380.43,392.75 373.57,393.34 C363.68,394.19 350.08,398.37 339.64,403.75 C327.64,409.93 318.64,418.78 313.37,429.59 L 309.50 437.50 L 309.50 452.00 C309.50,464.33 309.84,467.52 311.75,473.35 C317.28,490.20 327.99,508.42 342.77,526.12 C355.03,540.80 369.20,552.23 385.86,560.77 C394.48,565.22 403.69,568.85 413.48,571.67 C414.61,572.00 415.75,572.33 416.90,572.64 C418.04,572.95 419.22,573.26 420.45,573.55 C424.69,574.75 428.55,576.20 429.50,577.00 C436.07,582.52 504.63,627.46 517.50,634.69 C522.45,637.47 534.94,644.11 545.25,649.44 C558.34,656.21 564.00,659.65 564.00,660.83 C564.00,662.83 567.16,667.90 571.63,673.70 L 571.63 673.70 C576.99,680.68 584.23,688.69 590.21,693.77 C604.36,705.79 624.21,716.87 636.31,719.49 C636.58,719.55 636.85,719.61 637.10,719.67 C641.09,720.54 642.79,720.91 644.45,720.78 C645.79,720.68 647.10,720.27 649.57,719.53 C652.28,718.72 655.97,716.72 657.77,715.07 C661.94,711.26 669.00,696.78 669.00,692.05 C669.00,689.19 669.68,687.96 672.49,685.71 C676.53,682.49 678.33,679.33 681.62,669.63 C684.53,661.10 684.60,657.05 681.98,649.45 C678.59,639.60 673.97,636.09 660.46,633.14 C660.11,633.06 659.75,632.99 659.39,632.91 C657.05,632.23 652.94,631.56 645.87,630.56 L 645.70 630.54 C644.24,630.33 642.74,630.12 641.22,629.92 C639.56,629.70 637.81,629.48 635.98,629.27 L 635.97 629.27 C625.32,628.01 613.46,627.03 601.74,626.45 C596.10,626.17 590.48,625.98 585.03,625.90 L 580.38 625.83 C579.24,625.78 578.20,625.71 577.16,625.58 C573.99,625.18 570.89,624.20 565.56,621.71 L 562.29 620.10 L 559.32 618.64 C556.93,617.43 554.21,616.01 551.05,614.34 L 558.80 611.14 C587.50,599.30 617.76,574.03 638.65,544.50 C690.39,471.34 699.66,366.32 661.87,281.55 C649.66,254.18 635.07,232.86 614.59,212.46 C598.01,195.96 579.70,183.02 562.02,175.32 L 554.50 172.04 L 554.18 175.08 C554.01,176.75 554.32,180.23 554.88,182.81 C555.85,187.25 555.72,187.77 552.59,192.50 C551.63,193.94 550.66,195.37 549.67,196.78 L 549.67 196.79 C541.37,208.61 532.01,219.56 522.02,229.27 C522.02,229.27 522.02,229.27 522.02,229.27 C507.01,243.82 490.48,255.68 474.13,263.30 C473.99,263.37 473.86,263.43 473.72,263.49 L 473.70 263.50 L 473.70 263.50 C456.85,271.29 444.25,274.42 409.41,279.49 C369.19,285.34 351.10,289.63 314.50,301.99 C292.30,309.49 278.36,316.17 270.89,322.88 C259.21,333.36 252.01,354.40 253.36,374.08 C255.02,398.14 262.98,423.61 277.84,452.39 L 284.50 465.28 L 284.53 464.71 C284.91,465.07 285.00,464.45 285.00,463.06 ZM 222.37 411.75 C213.37,390.84 207.75,375.20 199.98,349.42 C187.10,306.73 182.16,278.64 183.29,254.65 C184.44,230.46 190.50,218.17 206.51,207.54 C209.72,205.41 212.99,203.72 216.45,202.42 C220.40,200.98 224.61,200.11 229.41,199.76 C230.41,199.71 231.44,199.68 232.50,199.67 C240.17,199.61 258.48,201.49 253.95,201.87 C251.39,202.08 236.40,209.65 230.24,213.84 C216.34,223.28 204.77,239.41 199.97,256.03 C196.61,267.68 196.13,289.76 198.89,305.91 C202.45,326.72 208.13,344.63 219.86,371.98 L 226.50 387.46 L 227.11 372.48 C228.27,343.83 235.75,324.10 252.12,306.58 C275.80,281.22 305.14,269.79 378.00,257.54 C415.53,251.24 426.73,249.21 439.00,246.50 C480.39,237.35 508.50,224.26 527.79,205.15 C561.22,172.03 569.20,122.03 552.35,51.25 C550.88,45.06 549.46,40.21 549.19,40.47 C548.93,40.74 547.45,45.87 545.90,51.89 C538.35,81.21 524.33,106.41 504.47,126.34 C476.89,154.02 438.02,170.91 381.00,179.98 C374.12,181.07 357.25,183.33 343.50,185.01 C309.49,189.15 283.17,193.28 272.47,196.11 C273.69,195.68 274.84,195.24 275.50,194.94 C279.92,192.95 293.44,189.88 310.50,186.98 C320.40,185.30 329.25,183.70 330.17,183.42 C331.69,182.96 331.63,182.16 329.49,174.21 C325.07,157.77 316.78,136.68 309.76,124.01 C306.85,118.75 306.29,118.29 301.54,117.19 C301.28,117.13 301.03,117.07 300.77,117.01 C301.63,117.17 302.46,117.35 303.25,117.54 C306.88,118.45 306.76,117.16 302.72,111.83 C295.86,102.80 276.89,90.99 263.50,87.42 C253.90,84.86 239.59,84.45 230.37,86.47 C223.20,88.04 216.18,90.73 209.47,94.46 C204.85,97.02 200.37,100.08 196.08,103.60 C193.76,105.45 191.40,107.46 189.00,109.64 L 182.50 115.54 L 172.00 114.73 C144.10,112.56 96.22,120.60 91.59,128.22 C89.87,131.05 91.84,131.93 105.59,134.44 C134.29,139.69 149.99,145.14 172.63,157.71 L 180.77 162.23 L 181.51 168.05 C181.62,169.10 181.76,170.26 181.93,171.47 C181.99,171.90 182.05,172.32 182.10,172.76 C182.67,177.94 182.95,183.87 182.94,189.81 C182.89,197.86 182.28,206.15 181.25,212.95 C180.25,219.23 179.40,222.37 176.50,228.98 L 176.50 228.98 C175.45,231.32 174.19,234.06 173.05,236.50 C165.15,253.42 163.78,269.57 167.92,297.18 C174.04,338.12 187.55,371.75 209.83,401.56 C215.53,409.18 224.75,420.00 225.55,420.00 C225.76,420.00 224.33,416.29 222.37,411.75 ZM 544.95 637.44 C519.13,624.64 500.14,613.55 473.37,595.64 L 449.25 579.50 L 456.87 579.24 C458.58,579.18 460.32,579.05 461.85,578.87 C464.14,578.78 465.44,578.52 466.47,577.96 C466.52,577.94 466.57,577.92 466.61,577.89 C468.44,576.96 470.03,577.70 478.11,583.24 C494.40,594.40 526.15,612.80 555.08,627.85 C572.32,636.81 573.92,638.05 575.46,643.61 C575.51,643.80 575.56,643.97 575.59,644.12 C575.60,644.86 575.47,645.22 575.01,645.32 C574.64,645.35 574.10,645.29 573.33,645.16 C572.98,645.09 572.58,645.00 572.12,644.89 C570.04,644.40 568.59,644.12 567.50,644.15 L 565.38 643.83 L 564.56 645.66 C564.25,645.87 563.88,646.00 563.52,646.00 C562.79,646.00 554.43,642.15 544.95,637.44 ZM 623.00 668.16 C621.54,667.67 620.12,667.15 618.74,666.60 C614.55,664.88 610.40,662.68 606.98,660.38 C605.03,659.04 603.23,657.61 601.58,656.08 L 601.52 656.02 C601.48,655.98 601.44,655.94 601.40,655.89 L 597.51 651.92 L 601.88 653.46 C606.91,655.23 613.27,655.46 616.06,653.97 C617.11,653.40 618.63,651.68 619.43,650.13 C620.47,648.12 620.80,647.55 623.23,647.71 L 627.38 648.22 C627.92,648.29 628.45,648.37 628.96,648.45 C628.96,648.45 628.96,648.45 628.97,648.45 C632.78,649.08 635.64,649.97 637.60,651.13 L 637.61 651.13 C639.56,652.30 640.64,653.76 640.84,655.48 C641.29,659.44 639.47,665.26 637.13,667.38 C634.32,669.92 629.17,670.21 623.00,668.16 ZM 624.01 692.02 C623.16,693.15 622.27,694.08 621.47,694.61 C615.66,698.42 602.37,692.57 591.73,681.53 C589.41,679.12 587.68,677.33 586.22,675.84 C585.58,674.98 585.25,674.42 585.35,674.32 C585.60,674.07 587.61,674.78 589.81,675.90 C592.01,677.03 595.64,678.24 597.86,678.59 C601.48,679.17 602.24,678.91 605.01,676.14 L 608.11 673.04 L 616.79 677.39 C617.44,677.73 618.09,678.06 618.75,678.39 C619.21,678.62 619.66,678.85 620.10,679.07 C623.77,681.00 626.72,682.77 627.67,683.62 C627.96,684.85 626.85,687.59 625.32,690.09 L 625.29 690.14 C624.89,690.80 624.46,691.43 624.01,692.02 ZM 283.19 118.52 C282.59,119.33 282.47,120.36 282.63,122.30 L 282.63 122.29 C282.45,120.32 282.56,119.32 283.19,118.52 ZM 273.97 190.97 C276.29,188.28 278.00,185.41 279.14,182.27 C277.98,185.48 276.22,188.40 273.84,191.13 C273.88,191.08 273.93,191.02 273.97,190.97 ZM 282.33 128.95 C281.93,130.59 281.29,132.21 280.47,133.73 C281.27,132.24 281.90,130.65 282.31,129.03 Z" fill="rgb(254,221,88)"/>
<path d="M 271.30 193.74 C277.97,187.53 281.00,180.37 280.92,171.00 C280.89,166.88 280.55,162.74 280.18,161.81 C279.81,160.88 276.80,158.35 273.50,156.20 C261.71,148.51 260.18,144.12 268.86,142.93 C276.64,141.87 283.70,131.93 282.74,123.40 C282.32,119.67 282.58,118.71 284.34,117.47 C286.88,115.69 294.57,115.56 301.54,117.19 C306.29,118.29 306.85,118.75 309.76,124.01 C316.78,136.68 325.07,157.77 329.49,174.21 C331.63,182.16 331.69,182.96 330.17,183.42 C329.25,183.70 320.40,185.30 310.50,186.98 C293.44,189.88 279.92,192.95 275.50,194.94 C274.40,195.43 271.98,196.32 270.12,196.91 L 266.73 197.99 L 271.30 193.74 Z" fill="rgb(254,232,228)"/>
</g>
</svg>